<svg height="512" viewBox="0 0 512 512" width="512" xmlns="http://www.w3.org/2000/svg"><g id="flat"><path d="m72 104h304v384h-304z" fill="#fbb540"/><path d="m222.621 424a8 8 0 0 1 -8-8v-34.889a8 8 0 0 1 16 0v34.889a8 8 0 0 1 -8 8z" fill="#02a437"/><path d="m376 104h64v384h-64z" fill="#ea9d2d"/><g fill="#d18d28"><path d="m416 328a8 8 0 0 0 -16 0v130l-24 30h64l-24-30z"/><path d="m408 272a8 8 0 0 0 -8 8v16a8 8 0 0 0 16 0v-16a8 8 0 0 0 -8-8z"/><path d="m400 248a8 8 0 0 0 16 0v-114l24-30h-64l24 30z"/></g><path d="m320 56h-192l16-32h160z" fill="#dc4d41"/><path d="m360 56h32v48h-32z" fill="#dc4d41"/><path d="m392 56h-72l-16-32h72z" fill="#b6534f"/><path d="m160 56h-32v88h-24v32h80v-32h-24z" fill="#f55648"/><path d="m320 144v-88h-32v88h-24v32h80v-32z" fill="#f55648"/><path d="m280 464h-16a8 8 0 0 1 0-16h16a8 8 0 0 1 0 16z" fill="#fbc872"/><path d="m344 464h-32a8 8 0 0 1 0-16h32a8 8 0 0 1 0 16z" fill="#fbc872"/><path d="m248.184 368.45 9.583-4.746a170.555 170.555 0 0 0 59.059-47.775q.99-1.27 1.957-2.56l22.458-29.945a177.469 177.469 0 0 0 -105.6 65.488l3.394-18.1a185.536 185.536 0 0 0 -16.409-117.163 185.529 185.529 0 0 0 -16.41 117.163l3.395 18.1a177.468 177.468 0 0 0 -105.611-65.488l22.459 29.945q.966 1.29 1.957 2.56a170.561 170.561 0 0 0 59.058 47.771l9.584 4.746a242.467 242.467 0 0 0 -51.727.189l-34.353 3.817 41.346 13.782a82.119 82.119 0 0 0 58.987-2.718 28.134 28.134 0 0 1 11.31-2.408 28.133 28.133 0 0 1 11.309 2.408 82.121 82.121 0 0 0 58.988 2.718l41.346-13.782-34.353-3.817a242.467 242.467 0 0 0 -51.727-.185z" fill="#029532"/></g></svg>