<svg height="512" viewBox="0 0 512 512" width="512" xmlns="http://www.w3.org/2000/svg"><g id="flat"><path d="m339.81 24a45.916 45.916 0 0 1 -59.99 43.69 40 40 0 0 1 -23.82 32.98l-48 3.33-1.64-8.44-3.03-15.56a40.018 40.018 0 0 1 36.67-56z" fill="#027e2a"/><path d="m331.11 24a45.922 45.922 0 0 1 -59.29 35.69 40 40 0 0 1 -23.82 32.98l-41.64 2.89-3.03-15.56a40.018 40.018 0 0 1 36.67-56z" fill="#029532"/><circle cx="368" cy="320" fill="#026a23" r="96"/><path d="m368 384a8 8 0 0 1 -8-8v-32a8 8 0 0 1 16 0v32a8 8 0 0 1 -8 8z" fill="#027e2a"/><path d="m432 304a57.887 57.887 0 0 0 -53.939 17.562 50.125 50.125 0 0 0 .569-40.759l-10.63-24.803-10.63 24.8a50.125 50.125 0 0 0 .569 40.759 57.887 57.887 0 0 0 -53.939-17.559l3.013 5.021a57.884 57.884 0 0 0 40.861 27.436 56.009 56.009 0 0 0 -21.981 21.27l-5.953 10.273 17.234-4.587a56.051 56.051 0 0 0 30.818-21.09 56.051 56.051 0 0 0 31.049 21.022l17.263 4.477-6.019-10.234a56.029 56.029 0 0 0 -22.129-21.136 57.884 57.884 0 0 0 40.831-27.431z" fill="#029532"/><g fill="#dbdbdb"><path d="m248 315.025v-195.025h-48v195.043a95.623 95.623 0 0 0 -32.234 15.15l-17.425-18.193-39.652 27.051 20.442 44.16.131-.09a96.117 96.117 0 0 0 39.654 104.879h106.168a96.027 96.027 0 0 0 -29.084-172.975z"/><path d="m215.76 414.75-25.87 18.84-73.61-98.36 26.46-18.05z"/><path d="m192 88h64v32h-64z"/></g><path d="m49.83 259.104 9.421 12.932 15.888 8.221 114.753 153.336 25.864-18.843-114.753-153.336-2.956-17.643-9.421-12.932z" fill="#ebebeb"/><path d="m215.76 414.75-25.87 18.84-73.61-98.36 26.46-18.05z" fill="#c3c3c3"/><path d="m270.414 368a7.983 7.983 0 0 1 -6.189-2.926 70.207 70.207 0 0 0 -12.933-12.206 8 8 0 1 1 9.416-12.935 86.119 86.119 0 0 1 15.886 14.992 8 8 0 0 1 -6.18 13.075z" fill="#fbfbf9"/><path d="m277.633 456a8 8 0 0 1 -6.92-12 69.916 69.916 0 0 0 7.567-50.232 8 8 0 0 1 15.606-3.536 85.928 85.928 0 0 1 -9.318 61.768 8 8 0 0 1 -6.935 4z" fill="#fbfbf9"/><path d="m200 120h48v16h-48z" fill="#c3c3c3"/></g></svg>