<?xml version="1.0"?>
<svg xmlns="http://www.w3.org/2000/svg" viewBox="0 0 512 512" width="512" height="512"><g id="flat"><path d="M488,272l-13.27,14.74a282.025,282.025,0,0,1-144.12,85.65L264,388.29v2.56l55.76,4.56A153.611,153.611,0,0,1,415.9,439.9L432,456H399.6a153.609,153.609,0,0,1-86.86-26.91L264,395.68V488a8,8,0,0,1-8,8,7.851,7.851,0,0,1-4-1.08,7.969,7.969,0,0,1-4-6.92V395.68l-8,5.48-40.74,27.93A153.609,153.609,0,0,1,112.4,456H80l16.1-16.1a153.611,153.611,0,0,1,96.14-44.49L248,390.85v-2.56l-66.61-15.9A282.025,282.025,0,0,1,37.27,286.74L25.91,274.12,24,272l48.25,10.34a282.034,282.034,0,0,1,115.04,53.92l41.51,32.59L248,383.92V381.3l-62.27-69.24A341.967,341.967,0,0,1,100.79,126.7c-.27-2.08-.51-4.16-.74-6.25L100,120l6.28,4.78A341.993,341.993,0,0,1,224.82,292.69l11.88,37.14L248,365.18V348L228.47,240.57A361.981,361.981,0,0,1,252,32.98q1.92-4.455,3.95-8.87L256,24l.05.11a361.971,361.971,0,0,1,27.48,216.46L267.3,329.83,264,348v17.18l23.18-72.49A342.094,342.094,0,0,1,403.2,126.71c.84-.64,1.68-1.29,2.52-1.93L412,120a343.384,343.384,0,0,1-86.03,192.39L275.2,368.85,264,381.3v2.62l60.71-47.66a282.034,282.034,0,0,1,115.04-53.92l38.34-8.22Z" style="fill:#45ef6b"/><path d="M478.09,274.12l-11.36,12.62a282.025,282.025,0,0,1-144.12,85.65L256,388.29v2.56l55.76,4.56A153.611,153.611,0,0,1,407.9,439.9L424,456H399.6a153.609,153.609,0,0,1-86.86-26.91L264,395.68v5.48l-8-5.48V488a7.969,7.969,0,0,1-4,6.92,7.969,7.969,0,0,1-4-6.92V395.68l-8,5.48v-5.48l-48.74,33.41A153.609,153.609,0,0,1,104.4,456H80l16.1-16.1a153.611,153.611,0,0,1,96.14-44.49L248,390.85v-2.56l-66.61-15.9A282.025,282.025,0,0,1,37.27,286.74L25.91,274.12l38.34,8.22a282.034,282.034,0,0,1,115.04,53.92L240,383.92V381.3l-11.2-12.45L248,383.92V381.3l-62.27-69.24A341.967,341.967,0,0,1,100.79,126.7,342.029,342.029,0,0,1,216.82,292.69L240,365.18V348l-3.3-18.17L248,365.18V348L228.47,240.57A361.981,361.981,0,0,1,252,32.98a361.981,361.981,0,0,1,23.53,207.59L256,348v17.18l11.3-35.35L264,348v17.18l23.18-72.49A342.094,342.094,0,0,1,403.2,126.71a343.364,343.364,0,0,1-85.23,185.68L256,381.3v2.62l19.2-15.07L264,381.3v2.62l60.71-47.66a282.034,282.034,0,0,1,115.04-53.92Z" style="fill:#027226"/></g></svg>
