<svg height="512" viewBox="0 0 512 512" width="512" xmlns="http://www.w3.org/2000/svg"><g id="flat"><g fill="#fbb540"><path d="m352 336h-328v-168h327.343z"/><path d="m440 264-32-96h-96v176h168v-64z"/><path d="m384 264v40a7.95 7.95 0 0 1 -1.25 4.29l-22.72 35.71h-18.97l26.94-42.33v-37.67z"/></g><path d="m440 264h-120v-48h104z" fill="#6cbae5"/><path d="m312 200h-56-232v-32h288z" fill="#ea9d2d"/><path d="m24 312h288v32h-288z" fill="#ea9d2d"/><path d="m424 312h64v32h-64z" fill="#d18d28"/><path d="m184 272h104v16h-104z" fill="#ea9d2d"/><path d="m48 240h240v16h-240z" fill="#ea9d2d"/><path d="m48 272h80v16h-80z" fill="#ea9d2d"/><path d="m128 272h64v40h-64z" fill="#d18d28"/><circle cx="161.19" cy="182.81" fill="#026a23" r="97.19"/><path d="m161.19 247.5a8 8 0 0 1 -8-8v-32.4a8 8 0 0 1 16 0v32.4a8 8 0 0 1 -8 8z" fill="#027e2a"/><path d="m225.984 166.612a58.6 58.6 0 0 0 -54.608 17.78 50.748 50.748 0 0 0 .576-41.265l-10.762-25.111-10.762 25.111a50.748 50.748 0 0 0 .572 41.265 58.6 58.6 0 0 0 -54.6-17.78l3.05 5.083a58.6 58.6 0 0 0 41.367 27.776 56.711 56.711 0 0 0 -22.253 21.534l-6.027 10.4 17.448-4.644a56.748 56.748 0 0 0 31.2-21.352 56.741 56.741 0 0 0 31.433 21.283l17.478 4.533-6.096-10.361a56.712 56.712 0 0 0 -22.4-21.4 58.6 58.6 0 0 0 41.333-27.764l3.051-5.083z" fill="#029532"/><circle cx="104" cy="344" fill="#4799cf" r="32"/><circle cx="104" cy="344" fill="#6cbae5" r="16"/><circle cx="424" cy="344" fill="#4799cf" r="32"/><circle cx="424" cy="344" fill="#6cbae5" r="16"/><path d="m368 216h16v48h-16z" fill="#4799cf"/><path d="m360.03 344 22.72-35.71a7.95 7.95 0 0 0 1.25-4.29v-40h-16v37.67l-26.94 42.33z" fill="#d18d28"/><path d="m336 288h16v16h-16z" fill="#d18d28"/><path d="m312 168h16v176h-16z" fill="#d18d28"/><path d="m312 216h16v48h-16z" fill="#4799cf"/></g></svg>