<svg id="Capa_1" enable-background="new 0 0 511 511" height="512" viewBox="0 0 511 511" width="512" xmlns="http://www.w3.org/2000/svg"><path d="m119.5 191.5h256v216h-256z" fill="#ded7da"/><path d="m375.5 415h-256c-4.143 0-7.5-3.358-7.5-7.5v-216c0-4.142 3.357-7.5 7.5-7.5h256c4.143 0 7.5 3.358 7.5 7.5v216c0 4.142-3.358 7.5-7.5 7.5zm-248.5-15h241v-201h-241z"/><path d="m483.937 459.53c-4.2-32.202-11.983-54.183-23.133-65.333-19.773-19.773-49.456-20.288-75.645-20.742-26.319-.457-49.05-.851-59.228-17.814-8.541-14.235-7.912-53.642-6.949-67.625.143-2.074-.582-4.114-2-5.634s-3.403-2.382-5.482-2.382h-112c-2.079 0-4.064.863-5.482 2.383s-2.143 3.56-2 5.634c.963 13.983 1.592 53.39-6.949 67.625-10.178 16.963-32.908 17.357-59.228 17.814-26.188.454-55.871.969-75.645 20.742-11.149 11.15-18.933 33.131-23.133 65.333-3.028 23.215-3.063 43.133-3.063 43.969 0 4.142 3.357 7.5 7.5 7.5h448c4.143 0 7.5-3.358 7.5-7.5 0-.836-.035-20.754-3.063-43.97z" fill="#f6b171"/><path d="m90.563 491.03c4.2-32.202 11.983-54.183 23.133-65.333 19.773-19.773 49.456-20.288 75.645-20.742 26.319-.457 49.05-.851 59.228-17.814 8.541-14.235 7.912-53.642 6.949-67.625-.143-2.074.582-4.114 2-5.634s3.403-2.383 5.482-2.383h55.501c-.186-9.604.124-18.295.481-23.483.143-2.074-.582-4.114-2-5.634s-3.403-2.382-5.482-2.382h-112c-2.079 0-4.064.863-5.482 2.383s-2.143 3.56-2 5.634c.963 13.983 1.592 53.39-6.949 67.625-10.178 16.963-32.908 17.357-59.228 17.814-26.188.454-55.871.969-75.645 20.742-11.149 11.15-18.933 33.131-23.133 65.333-3.028 23.215-3.063 43.133-3.063 43.969 0 4.142 3.357 7.5 7.5 7.5h57.037c.452-6.044 1.098-12.85 2.026-19.97z" fill="#f39842"/><path d="m255.5 16c-65.893 0-119.5 53.607-119.5 119.5v80c0 39.607 29.234 70.209 46.661 84.926 24.105 20.357 54.058 34.574 72.839 34.574s48.734-14.217 72.839-34.574c17.427-14.717 46.661-45.319 46.661-84.926v-80c0-65.893-53.607-119.5-119.5-119.5z" fill="#f6b171"/><path d="m222.161 292.926c-17.427-14.717-46.661-45.319-46.661-84.926v-80c0-51.216 32.389-95.003 77.757-111.971-64.861 1.2-117.257 54.328-117.257 119.471v80c0 39.607 29.234 70.209 46.661 84.926 24.105 20.357 54.058 34.574 72.839 34.574 8.645 0 19.659-3.018 31.378-8.255-18.592-3.176-43.844-16.192-64.717-33.819z" fill="#f39842"/><path d="m327.5 175c-1.919 0-3.839-.732-5.304-2.197-1.909-1.88-7.065-5.803-10.696-5.803s-8.787 3.923-10.716 5.823c-2.945 2.898-7.688 2.882-10.597-.05-2.91-2.932-2.912-7.655.009-10.576 1.044-1.044 10.509-10.197 21.304-10.197s20.26 9.153 21.304 10.197c2.929 2.929 2.929 7.678 0 10.606-1.465 1.465-3.385 2.197-5.304 2.197z" fill="#f07e12"/><circle cx="311.5" cy="175.5" fill="#7c616d" r="7.5"/><path d="m215.5 175c-1.911 0-3.822-.726-5.284-2.177-1.929-1.9-7.085-5.823-10.716-5.823s-8.787 3.923-10.716 5.823c-2.944 2.898-7.688 2.882-10.597-.05-2.91-2.932-2.912-7.655.009-10.576 1.044-1.044 10.509-10.197 21.304-10.197s20.26 9.153 21.304 10.197c2.929 2.929 2.929 7.678 0 10.606-1.465 1.465-3.385 2.197-5.304 2.197z" fill="#f07e12"/><circle cx="199.5" cy="175.5" fill="#7c616d" r="7.5"/><path d="m255.501 231.002c-.786 0-1.586-.125-2.373-.387l-24-8c-2.063-.688-3.725-2.236-4.557-4.245s-.752-4.28.221-6.224l24-48c1.852-3.705 6.355-5.207 10.063-3.354 3.704 1.852 5.206 6.357 3.354 10.062l-20.133 40.266 15.797 5.265c3.93 1.31 6.053 5.557 4.743 9.487-1.049 3.142-3.976 5.13-7.115 5.13z" fill="#f39842"/><path d="m300.347 243.115c-10.823-8.13-25.858-9.316-44.711-3.533-16.345-5.583-29.888-4.714-40.282 2.59-24.701 17.359-24.066 65.7-23.506 108.351.078 5.961.152 11.592.152 16.977 0 59.179 56.726 100.378 59.141 102.103 1.304.931 2.832 1.397 4.359 1.397s3.056-.466 4.359-1.397c2.415-1.725 59.141-42.924 59.141-102.103 0-8.246.351-17.142.723-26.559 1.568-39.761 3.19-80.875-19.376-97.826z" fill="#efebed"/><path d="m222.969 367.5c0-5.385-.074-11.016-.152-16.977-.561-42.651-1.195-90.992 23.506-108.351 2.018-1.418 4.159-2.587 6.412-3.52-15.051-4.524-27.608-3.348-37.381 3.52-24.701 17.359-24.066 65.7-23.506 108.351.078 5.961.152 11.592.152 16.977 0 59.179 56.726 100.378 59.141 102.103 1.304.931 2.832 1.397 4.359 1.397s3.056-.466 4.359-1.397c.634-.453 5.014-3.63 11.125-9.135-17.167-15.465-48.015-49.325-48.015-92.968z" fill="#cec4c8"/><path d="m279.494 287.001c-1.127 0-2.271-.255-3.349-.793l-11.165-5.583-4.177 4.178c-2.93 2.929-7.678 2.929-10.607 0l-4.177-4.178-11.165 5.583c-3.706 1.854-8.211.352-10.063-3.354-1.853-3.705-.351-8.21 3.354-10.062l16-8c2.889-1.444 6.375-.879 8.658 1.405l2.696 2.697 2.696-2.697c2.284-2.283 5.771-2.849 8.658-1.405l16 8c3.704 1.852 5.206 6.357 3.354 10.062-1.313 2.628-3.962 4.147-6.713 4.147z" fill="#7c616d"/><path d="m271.5 143h-32c-4.143 0-7.5-3.358-7.5-7.5s3.357-7.5 7.5-7.5h32c4.143 0 7.5 3.358 7.5 7.5s-3.358 7.5-7.5 7.5z" fill="#f15151"/><circle cx="255.5" cy="111.5" fill="#f15151" r="7.5"/><path d="m462.22 396.168c-.313-.634-31.22-65.761-31.22-260.668 0-24.547-4.144-45.961-12.316-63.646-7.99-17.29-20.077-31.598-35.926-42.528-28.613-19.733-70.239-29.326-127.258-29.326-4.143 0-7.5 3.358-7.5 7.5v80c0 2.91 1.684 5.558 4.319 6.792 2.634 1.234 5.746.833 7.982-1.03 9.889-8.241 24.928-16.543 40.421-9.287 20.923 9.799 43.278 49.497 43.278 131.525 0 22.487-.28 42.079-.528 59.364-.547 38.199-.907 63.435 2.233 81.154 2.398 13.526 7.745 29.7 27.976 34.758 31.922 7.98 80.104 16.042 80.586 16.122.41.068.819.102 1.227.102 2.348 0 4.589-1.112 6.02-3.035 1.676-2.257 1.946-5.273.706-7.797z" fill="#efebed"/><path d="m255.5 0c-57.019 0-98.645 9.593-127.258 29.326-15.849 10.93-27.936 25.238-35.926 42.528-8.172 17.685-12.316 39.099-12.316 63.646 0 194.907-30.907 260.034-31.208 260.646-1.262 2.523-1.001 5.541.675 7.81 1.428 1.933 3.677 3.044 6.032 3.044.409 0 .822-.033 1.234-.102.482-.081 48.664-8.142 80.586-16.122 20.23-5.058 25.577-21.232 27.976-34.758 3.141-17.719 2.78-42.955 2.233-81.154-.248-17.285-.528-36.877-.528-59.364 0-82.028 22.355-121.726 43.277-131.525 15.492-7.256 30.531 1.046 40.421 9.287 2.236 1.863 5.348 2.264 7.982 1.03 2.636-1.234 4.32-3.882 4.32-6.792v-80c0-4.142-3.357-7.5-7.5-7.5z" fill="#efebed"/><path d="m88.292 396.146c.301-.612 31.208-65.739 31.208-260.646 0-24.547 4.144-45.961 12.316-63.646 7.99-17.29 20.077-31.598 35.926-42.528 22.365-15.424 52.68-24.653 92.082-27.948-1.223-.865-2.712-1.378-4.324-1.378-57.019 0-98.645 9.593-127.258 29.326-15.849 10.93-27.936 25.238-35.926 42.528-8.172 17.685-12.316 39.099-12.316 63.646 0 194.907-30.907 260.034-31.208 260.646-1.262 2.523-1.001 5.541.675 7.81 1.428 1.933 3.677 3.044 6.032 3.044.409 0 .822-.033 1.234-.102.254-.042 13.684-2.29 31.003-5.57-.429-1.711-.261-3.549.556-5.182z" fill="#cec4c8"/></svg>