<svg id="Layer_1" enable-background="new 0 0 512 512" height="512" viewBox="0 0 512 512" width="512" xmlns="http://www.w3.org/2000/svg"><path d="m497 29.12v373.11l-175.03 40-58.87-13.45-116.15-26.55c-23.94-30.59-61.14-50.27-102.85-50.27-7.78 0-15.09-3.03-20.59-8.54-5.49-5.49-8.51-12.8-8.51-20.58v-124.26c0-8.88 4.05-17.24 10.92-22.74l154.53-169.69 1.4-.97c4.89-3.39 10.62-5.18 16.57-5.18h269.48c7.78 0 15.09 3.03 20.59 8.54 5.49 5.5 8.51 12.81 8.51 20.58z" fill="#ffe470"/><path d="m497 29.12v373.11l-175.03 40-58.87-13.45v-428.78h204.8c7.78 0 15.09 3.03 20.59 8.54 5.49 5.5 8.51 12.81 8.51 20.58z" fill="#ffcd00"/><path d="m438.4 69.32v136.92c0 8.28-6.72 15-15 15h-320.6c-5.94 0-11.32-3.51-13.72-8.94s-1.37-11.76 2.62-16.16l124.52-136.91c2.84-3.12 6.87-4.91 11.09-4.91h196.09c8.28 0 15 6.72 15 15z" fill="#fff"/><path d="m423.397 256.234h-101.946c-8.284 0-15 6.716-15 15 0 35.502 28.883 64.385 64.385 64.385h52.562c8.284 0 15-6.716 15-15v-49.385c-.001-8.284-6.716-15-15.001-15z" fill="#ff9f00"/><path d="m497 402.23v80.65c0 16.06-13.06 29.12-29.1 29.12h-264.06c-16.04 0-29.09-13.06-29.09-29.12 0-30.4-10.39-58.4-27.8-80.65z" fill="#ffcd00"/><path d="m423.4 221.24h-160.3v-166.92h160.3c8.28 0 15 6.72 15 15v136.92c0 8.28-6.72 15-15 15z" fill="#9bfcff"/><path d="m497 402.23v80.65c0 16.06-13.06 29.12-29.1 29.12h-204.8v-109.77z" fill="#ff9f00"/></svg>