<?xml version="1.0" encoding="iso-8859-1"?>
<!-- Generator: Adobe Illustrator 19.0.0, SVG Export Plug-In . SVG Version: 6.00 Build 0)  -->
<svg version="1.1" id="Capa_1" xmlns="http://www.w3.org/2000/svg" xmlns:xlink="http://www.w3.org/1999/xlink" x="0px" y="0px"
	 viewBox="0 0 512 512" style="enable-background:new 0 0 512 512;" xml:space="preserve">
<path style="fill:#ABFDFF;" d="M131.757,411.06c-4.171,0-7.552-3.381-7.552-7.552v-80.551c0-4.171,3.381-7.552,7.552-7.552
	c4.171,0,7.552,3.381,7.552,7.552v80.551C139.308,407.679,135.927,411.06,131.757,411.06z"/>
<path style="fill:#957856;" d="M152.152,393.698c0,11.262-9.129,62.671-20.392,62.671c-11.262,0-20.392-51.408-20.392-62.671
	c0-11.262,9.129-20.392,20.392-20.392C143.023,373.307,152.152,382.436,152.152,393.698z"/>
<path style="fill:#806749;" d="M111.368,393.698c0,11.262,9.13,62.671,20.392,62.671v-83.063
	C120.498,373.307,111.368,382.436,111.368,393.698z"/>
<path style="fill:#ABFDFF;" d="M380.237,411.06c-4.172,0-7.552-3.381-7.552-7.552v-80.551c0-4.171,3.38-7.552,7.552-7.552
	c4.172,0,7.552,3.381,7.552,7.552v80.551C387.789,407.679,384.408,411.06,380.237,411.06z"/>
<path style="fill:#957856;" d="M400.632,393.698c0,11.262-9.129,62.671-20.392,62.671c-11.262,0-20.392-51.408-20.392-62.671
	c0-11.262,9.129-20.392,20.392-20.392C391.502,373.307,400.632,382.436,400.632,393.698z"/>
<path style="fill:#806749;" d="M359.848,393.698c0,11.262,9.13,62.671,20.392,62.671v-83.063
	C368.977,373.307,359.848,382.436,359.848,393.698z"/>
<rect x="248.448" y="378.588" style="fill:#FFE477;" width="15.103" height="80.551"/>
<path style="fill:#B39A7C;" d="M276.392,449.329c0,11.262-9.129,62.671-20.392,62.671c-11.262,0-20.392-51.408-20.392-62.671
	c0-11.262,9.129-20.392,20.392-20.392C267.262,428.937,276.392,438.067,276.392,449.329z"/>
<path style="fill:#957856;" d="M235.608,449.329c0,11.262,9.13,62.671,20.392,62.671v-83.063
	C244.738,428.937,235.608,438.067,235.608,449.329z"/>
<path style="fill:#ABFDFF;" d="M256,202.192c-27.278,0-49.471-22.193-49.471-49.47c0-12.391,4.803-42.771,12.562-70.248
	c4.363-15.447,9.051-27.898,13.937-37.007c6.975-13.004,14.489-19.324,22.971-19.324c8.482,0,15.997,6.321,22.971,19.324
	c4.886,9.109,9.575,21.56,13.937,37.007c7.76,27.478,12.563,57.858,12.563,70.248C305.471,180,283.279,202.192,256,202.192z
	 M256,41.245c-2.483,0-11.925,8.328-22.374,45.333c-7.826,27.712-11.994,56.219-11.994,66.143c0,18.951,15.417,34.367,34.368,34.367
	s34.368-15.417,34.368-34.367c0-9.924-4.169-38.431-11.994-66.143C267.924,49.574,258.484,41.245,256,41.245z"/>
<path style="fill:#FFE477;" d="M285.641,214.47c-13.213,0-25.637-5.145-34.981-14.49c-9.344-9.344-14.49-21.767-14.49-34.981
	s5.145-25.637,14.49-34.981c14.9-14.9,80.031-59.766,109.945-59.766c6.171,0,11.063,1.764,14.541,5.243
	c5.998,5.998,6.842,15.781,2.579,29.907c-2.986,9.897-8.474,22.017-16.313,36.023c-13.942,24.915-32.028,49.793-40.789,58.555
	C311.279,209.325,298.856,214.47,285.641,214.47z M261.34,140.698c-7.219,5.67-10.066,15.122-10.066,24.302
	c0,9.18,3.574,17.81,10.066,24.301c6.491,6.491,15.122,10.066,24.302,10.066c9.181,0,17.811-3.574,24.302-10.066
	c7.018-7.018,24.229-30.123,38.289-55.252c18.776-33.555,17.99-46.119,16.235-47.875C364.089,85.797,342.089,77.278,261.34,140.698z
	"/>
<path style="fill:#ABFDFF;" d="M297.92,244.112c-27.278,0-49.471-22.193-49.471-49.471s22.193-49.47,49.471-49.47
	c12.391,0,42.771,4.803,70.248,12.562c15.447,4.362,27.898,9.051,37.007,13.937c13.003,6.975,19.324,14.489,19.324,22.971
	s-6.321,15.997-19.324,22.971c-9.109,4.886-21.56,9.575-37.007,13.937C340.69,239.309,310.309,244.112,297.92,244.112z
	 M297.92,160.274c-18.951,0-34.368,15.417-34.368,34.367s15.417,34.368,34.368,34.368c9.924,0,38.432-4.168,66.143-11.994
	c37.004-10.449,45.332-19.891,45.332-22.374c0-2.483-8.328-11.925-45.332-22.374C336.351,164.441,307.843,160.274,297.92,160.274z"
	/>
<g>
	<path style="fill:#FFE477;" d="M360.605,319.03c-29.913,0-95.045-44.867-109.945-59.766c-19.289-19.289-19.289-50.674,0-69.962
		c9.344-9.344,21.768-14.49,34.981-14.49c13.214,0,25.638,5.146,34.981,14.49c8.762,8.762,26.848,33.641,40.79,58.555
		c7.839,14.007,13.326,26.127,16.313,36.023c4.263,14.127,3.419,23.909-2.58,29.907C371.668,317.266,366.776,319.03,360.605,319.03z
		 M285.641,189.914c-9.18,0-17.81,3.574-24.302,10.066c-13.4,13.401-14.534,36.444,0.001,48.603
		c63.631,53.229,102.748,54.901,103.126,54.524c1.756-1.756,2.542-14.321-16.234-47.875c-14.061-25.129-31.272-48.234-38.289-55.252
		C303.452,193.49,294.822,189.914,285.641,189.914z"/>
	<path style="fill:#FFE477;" d="M151.395,319.03c-6.17,0-11.063-1.764-14.541-5.243c-5.999-5.998-6.842-15.781-2.579-29.907
		c2.986-9.897,8.475-22.016,16.313-36.023c13.942-24.916,32.029-49.794,40.79-58.555c9.344-9.344,21.767-14.49,34.981-14.49
		c13.214,0,25.637,5.146,34.981,14.49s14.491,21.767,14.491,34.981s-5.146,25.637-14.49,34.981
		C246.44,274.163,181.309,319.03,151.395,319.03z M226.358,189.914c-9.18,0-17.81,3.574-24.301,10.066
		c-7.017,7.018-24.228,30.123-38.29,55.252c-18.776,33.555-17.99,46.119-16.235,47.875c0.378,0.378,38.741-0.036,103.127-54.524
		c7.008-5.931,10.067-15.122,10.067-24.302c0-9.18-3.575-17.811-10.067-24.302S235.538,189.914,226.358,189.914z"/>
</g>
<g>
	<path style="fill:#ABFDFF;" d="M256,363.139c-8.483,0-15.997-6.321-22.971-19.324c-4.886-9.109-9.575-21.56-13.937-37.007
		c-7.759-27.477-12.562-57.857-12.562-70.248c0-27.278,22.193-49.471,49.471-49.471c27.279,0,49.471,22.193,49.471,49.471
		c0,12.391-4.803,42.771-12.563,70.248c-4.362,15.447-9.051,27.898-13.937,37.007C271.997,356.818,264.483,363.139,256,363.139z
		 M256,202.192c-18.951,0-34.368,15.417-34.368,34.368c0,9.924,4.169,38.431,11.994,66.143
		c10.449,37.004,19.891,45.333,22.374,45.333c2.484,0,11.924-8.328,22.374-45.333c7.826-27.711,11.994-56.218,11.994-66.143
		C290.368,217.61,274.951,202.192,256,202.192z"/>
	<path style="fill:#ABFDFF;" d="M214.08,244.112c-12.391,0-42.771-4.803-70.248-12.562c-15.447-4.363-27.898-9.051-37.007-13.937
		c-13.004-6.975-19.324-14.489-19.324-22.971s6.321-15.997,19.324-22.971c9.109-4.886,21.56-9.575,37.007-13.937
		c27.477-7.759,57.858-12.562,70.248-12.562c27.278,0,49.471,22.193,49.471,49.47S241.359,244.112,214.08,244.112z M214.08,160.274
		c-9.924,0-38.431,4.168-66.143,11.994c-37.004,10.449-45.332,19.89-45.332,22.374s8.328,11.925,45.333,22.374
		c27.711,7.826,56.218,11.994,66.143,11.994c18.951,0,34.368-15.417,34.368-34.368S233.031,160.274,214.08,160.274z"/>
</g>
<path style="fill:#FFE477;" d="M226.358,214.47c-13.214,0-25.637-5.145-34.981-14.49c-8.761-8.761-26.848-33.639-40.79-58.555
	c-7.839-14.007-13.326-26.127-16.313-36.023c-4.263-14.127-3.419-23.909,2.579-29.907c3.479-3.479,8.37-5.243,14.541-5.243
	c29.915,0,95.046,44.867,109.945,59.766c9.344,9.344,14.491,21.767,14.491,34.981c0,13.214-5.146,25.637-14.491,34.981
	C251.996,209.325,239.573,214.47,226.358,214.47z M147.533,86.174c-1.756,1.756-2.542,14.321,16.235,47.875
	c14.062,25.13,31.273,48.234,38.29,55.252c6.491,6.491,15.121,10.066,24.301,10.066c9.18,0,17.811-3.574,24.302-10.066
	S260.727,174.18,260.727,165c0-9.18-2.912-18.55-10.067-24.302C168.653,74.761,147.91,85.797,147.533,86.174z"/>
<path style="fill:#FF5C5C;" d="M256,7.552c-103.326,0-187.089,83.763-187.089,187.089S152.674,381.729,256,381.729
	s187.089-83.763,187.089-187.089S359.326,7.552,256,7.552z M256,351.523c-86.505,0-156.883-70.377-156.883-156.882
	S169.495,37.758,256,37.758s156.883,70.377,156.883,156.883S342.505,351.523,256,351.523z"/>
<g>
	<path style="fill:#FF3333;" d="M276.392,37.758c-3.426,0-6.824,0.123-10.196,0.34c81.77,5.272,146.687,73.463,146.687,156.543
		s-64.917,151.27-146.687,156.542c3.372,0.217,6.77,0.34,10.196,0.34c86.505,0,156.883-70.377,156.883-156.882
		S362.898,37.758,276.392,37.758z"/>
	<path style="fill:#FF3333;" d="M89.303,194.641c0-99.905,78.309-181.514,176.893-186.81c-3.376-0.181-6.774-0.28-10.196-0.28
		c-103.327,0.001-187.09,83.764-187.09,187.09S152.674,381.729,256,381.729c3.421,0,6.82-0.098,10.196-0.28
		C167.612,376.155,89.303,294.546,89.303,194.641z"/>
	<circle style="fill:#FF3333;" cx="256" cy="194.641" r="29.863"/>
</g>
<path style="fill:#F21C1C;" d="M246.529,194.641c0-12.912,8.195-23.908,19.666-28.075c-3.182-1.156-6.615-1.788-10.196-1.788
	c-16.493,0-29.863,13.37-29.863,29.863c0,16.493,13.37,29.863,29.863,29.863c3.581,0,7.014-0.632,10.196-1.788
	C254.724,218.549,246.529,207.553,246.529,194.641z"/>
<g>
	<path style="fill:#57E5D0;" d="M256,45.31c-4.171,0-7.552-3.381-7.552-7.552V7.552C248.448,3.381,251.829,0,256,0
		c4.172,0,7.552,3.381,7.552,7.552v30.206C263.552,41.929,260.172,45.31,256,45.31z"/>
	<path style="fill:#57E5D0;" d="M256,389.282c-4.171,0-7.552-3.381-7.552-7.552v-30.206c0-4.171,3.381-7.552,7.552-7.552
		c4.172,0,7.552,3.381,7.552,7.552v30.206C263.552,385.901,260.172,389.282,256,389.282z"/>
	<path style="fill:#57E5D0;" d="M443.09,202.192h-30.207c-4.172,0-7.552-3.381-7.552-7.552c0-4.171,3.38-7.552,7.552-7.552h30.207
		c4.172,0,7.552,3.381,7.552,7.552C450.642,198.811,447.26,202.192,443.09,202.192z"/>
</g>
<path style="fill:#28C6AF;" d="M405.332,194.641c0,4.171,3.38,7.552,7.552,7.552h20.207c0.119-2.503,0.185-5.019,0.185-7.552
	c0-2.532-0.065-5.049-0.185-7.552h-20.207C408.712,187.089,405.332,190.47,405.332,194.641z"/>
<path style="fill:#57E5D0;" d="M99.117,202.192H68.91c-4.171,0-7.552-3.381-7.552-7.552c0-4.171,3.381-7.552,7.552-7.552h30.206
	c4.171,0,7.552,3.381,7.552,7.552C106.668,198.811,103.288,202.192,99.117,202.192z"/>
<path style="fill:#28C6AF;" d="M89.303,194.641c0-2.53,0.063-5.045,0.163-7.552H68.91c-4.171,0-7.552,3.381-7.552,7.552
	c0,4.171,3.381,7.552,7.552,7.552h20.556C89.367,199.686,89.303,197.171,89.303,194.641z"/>
<path style="fill:#FFD422;" d="M366.933,91.26c-1.932,0-3.865-0.737-5.34-2.212c-2.949-2.949-2.949-7.731,0-10.679l21.359-21.359
	c2.95-2.949,7.731-2.949,10.68,0c2.949,2.949,2.949,7.73,0,10.679l-21.359,21.359C370.799,90.522,368.866,91.26,366.933,91.26z"/>
<path style="fill:#FFCD00;" d="M370.65,69.312l-9.057,9.057c-2.949,2.949-2.949,7.731,0,10.679c1.475,1.474,3.408,2.212,5.34,2.212
	c1.932,0,3.865-0.737,5.341-2.212l10.034-10.034C378.582,75.598,374.691,72.36,370.65,69.312z"/>
<path style="fill:#FFD422;" d="M123.708,334.485c-1.932,0-3.865-0.737-5.34-2.212c-2.949-2.949-2.949-7.731,0-10.679l21.359-21.359
	c2.949-2.949,7.731-2.949,10.679,0c2.949,2.949,2.949,7.731,0,10.679l-21.359,21.359
	C127.573,333.746,125.641,334.485,123.708,334.485z"/>
<path style="fill:#FFCD00;" d="M123.708,334.485c1.932,0,3.865-0.737,5.339-2.212l10.295-10.295
	c-3.438-3.697-6.734-7.525-9.866-11.493l-11.108,11.108c-2.949,2.949-2.949,7.731,0,10.679
	C119.842,333.746,121.775,334.485,123.708,334.485z"/>
<path style="fill:#FFD422;" d="M388.292,334.485c-1.932,0-3.865-0.737-5.34-2.212l-21.359-21.359c-2.949-2.949-2.949-7.731,0-10.679
	c2.95-2.949,7.731-2.949,10.68,0l21.359,21.359c2.949,2.949,2.949,7.731,0,10.679C392.158,333.746,390.225,334.485,388.292,334.485z
	"/>
<path style="fill:#FFCD00;" d="M372.274,300.234c-2.95-2.949-7.731-2.949-10.68,0c-2.949,2.949-2.949,7.731,0,10.679l9.056,9.056
	c4.043-3.048,7.932-6.286,11.658-9.701L372.274,300.234z"/>
<path style="fill:#FFD422;" d="M145.067,91.26c-1.932,0-3.865-0.737-5.339-2.212l-21.359-21.359c-2.949-2.949-2.949-7.731,0-10.679
	c2.949-2.949,7.731-2.949,10.679,0l21.359,21.359c2.949,2.949,2.949,7.731,0,10.679C148.932,90.522,147,91.26,145.067,91.26z"/>
<path style="fill:#FFCD00;" d="M118.368,57.009c-2.949,2.949-2.949,7.73,0,10.679l11.108,11.109
	c3.132-3.966,6.43-7.795,9.866-11.493l-10.295-10.295C126.099,54.06,121.317,54.06,118.368,57.009z"/>
<g>
</g>
<g>
</g>
<g>
</g>
<g>
</g>
<g>
</g>
<g>
</g>
<g>
</g>
<g>
</g>
<g>
</g>
<g>
</g>
<g>
</g>
<g>
</g>
<g>
</g>
<g>
</g>
<g>
</g>
</svg>
