<svg xmlns="http://www.w3.org/2000/svg" viewBox="0 0 462.47 404.82"><defs><style>.cls-1,.cls-3{fill:#0bdaa9;}.cls-2{fill:#7bff6a;}.cls-3{stroke:#0bdaa9;stroke-linecap:round;stroke-linejoin:round;stroke-width:16px;}</style></defs><title>Layer 11</title><g id="Layer_2" data-name="Layer 2"><g id="Layer_1-2" data-name="Layer 1"><path class="cls-1" d="M231.23,264.75c44,0,85.43-2.81,116.66-7.92,47.95-7.85,54.1-18.18,54.1-26.3s-6.15-18.44-54.1-26.29c-31.23-5.11-72.66-7.93-116.66-7.93s-85.42,2.81-116.64,7.93c-48,7.85-54.11,18.17-54.11,26.29s6.15,18.45,54.11,26.3C145.81,261.94,187.23,264.75,231.23,264.75ZM123,218.11c29.67-4.39,68.11-6.8,108.22-6.8s78.56,2.41,108.23,6.8c32.08,4.73,43,10.07,46.38,12.42-3.43,2.36-14.3,7.69-46.38,12.43-29.67,4.38-68.1,6.79-108.23,6.79S152.68,247.34,123,243c-32.07-4.74-42.95-10.07-46.37-12.43C80.06,228.18,90.94,222.84,123,218.11Z"/><path class="cls-1" d="M462.47,230.53c0-18.36-24-33.3-71.32-44.4-42.8-10-99.59-15.56-159.92-15.56-64.84,0-126.74,6.58-169.84,18.05a7.5,7.5,0,1,0,3.86,14.49c41.89-11.14,102.39-17.54,166-17.54,59.21,0,114.79,5.39,156.5,15.17,47.16,11.06,59.74,23.93,59.74,29.79s-12.58,18.74-59.74,29.8c-41.71,9.78-97.29,15.17-156.5,15.17s-114.77-5.39-156.49-15.17C27.59,249.27,15,236.4,15,230.53c0-4.73,7.05-10.89,18.86-16.48a7.5,7.5,0,1,0-6.41-13.56C9.23,209.11,0,219.22,0,230.53a22.61,22.61,0,0,0,5.33,14.22A22.69,22.69,0,0,0,0,259c0,9.82,7,18.74,20.65,26.53v79.28a17.16,17.16,0,0,0,34.31,0V299.1c39.47,11.48,96.47,18.56,158.93,19.67v68.9a17.17,17.17,0,0,0,17.16,17.15h.37a17.17,17.17,0,0,0,17.16-17.15v-68.9c21.34-.38,42.24-1.46,62.22-3.23a7.5,7.5,0,1,0-1.32-14.94c-19.54,1.73-40,2.79-60.9,3.17V290.34c53.8-1,103.9-6.34,142.57-15.41q8.72-2,16.36-4.26v12.76c-17.32,5.36-39.38,10-64.21,13.38a7.51,7.51,0,0,0,1,14.94,7.28,7.28,0,0,0,1-.08c23.92-3.29,44.77-7.51,62.16-12.58v65.69a17.16,17.16,0,1,0,34.31,0V285.5c13.7-7.79,20.65-16.71,20.65-26.53a22.69,22.69,0,0,0-5.33-14.22A22.61,22.61,0,0,0,462.47,230.53ZM15,259a7.8,7.8,0,0,1,1.66-4.32q1.89,1.23,4,2.43v10.38C17,264.43,15,261.5,15,259Zm22.81,108a2.16,2.16,0,0,1-2.16-2.16V264.15c1.4.56,2.83,1.11,4.31,1.65v99A2.16,2.16,0,0,1,37.81,366.94ZM55,283.45V270.67q7.66,2.22,16.36,4.26C110,284,160.09,289.39,213.89,290.34v13.43C150.5,302.63,93.14,295.29,55,283.45ZM233.58,387.67a2.16,2.16,0,0,1-2.16,2.15h-.37a2.16,2.16,0,0,1-2.16-2.15V290.49h4.69Zm191.08-20.73a2.16,2.16,0,0,1-2.15-2.16v-99c1.48-.54,2.91-1.09,4.31-1.65V364.78A2.16,2.16,0,0,1,424.66,366.94Zm17.16-99.48V257.08q2.1-1.2,4-2.43a7.77,7.77,0,0,1,1.66,4.32C447.47,261.5,445.48,264.43,441.82,267.46Z"/><path class="cls-1" d="M131.57,327.3a7.49,7.49,0,0,0-8.5,6.33l-1.61,10.89a7.51,7.51,0,0,0,6.33,8.52,8.26,8.26,0,0,0,1.1.08,7.51,7.51,0,0,0,7.41-6.41l1.61-10.9A7.5,7.5,0,0,0,131.57,327.3Z"/><path class="cls-1" d="M164.21,331.07a7.5,7.5,0,1,0-13.94,5.53l4.06,10.24a7.5,7.5,0,0,0,13.95-5.53Z"/><path class="cls-1" d="M109.77,320.29a7.5,7.5,0,0,0-10.54,1.22l-6.83,8.64a7.5,7.5,0,0,0,11.76,9.31l6.84-8.64A7.49,7.49,0,0,0,109.77,320.29Z"/><path class="cls-1" d="M329.36,333.63a7.5,7.5,0,0,0-14.84,2.18l1.61,10.9a7.51,7.51,0,0,0,7.41,6.41,8.26,8.26,0,0,0,1.1-.08,7.51,7.51,0,0,0,6.33-8.52Z"/><path class="cls-1" d="M298,326.86a7.51,7.51,0,0,0-9.74,4.21l-4.06,10.24a7.5,7.5,0,0,0,14,5.53l4.06-10.24A7.51,7.51,0,0,0,298,326.86Z"/><path class="cls-1" d="M353.2,321.51a7.5,7.5,0,0,0-11.77,9.31l6.84,8.64a7.51,7.51,0,0,0,5.89,2.84A7.5,7.5,0,0,0,360,330.15Z"/><path class="cls-2" d="M230.46,139.26l-2.91,16.52a7.5,7.5,0,1,0,14.77,2.6l2.92-16.52a7.5,7.5,0,0,0-14.78-2.6Z"/><path class="cls-2" d="M286.06,122.05l-3.66,20.8c-.85,4.78,1.77,9.24,5.85,10s8.07-2.58,8.92-7.36l3.66-20.8c.85-4.78-1.77-9.24-5.85-10S286.91,117.26,286.06,122.05Z"/><path class="cls-2" d="M131.61,68.12l-2,11.46a7.5,7.5,0,1,0,14.77,2.61l2-11.47a7.5,7.5,0,1,0-14.77-2.6Z"/><path class="cls-2" d="M154.54,120.21l-5.3,30.07a7.5,7.5,0,1,0,14.77,2.6l5.3-30.06a7.5,7.5,0,0,0-14.77-2.61Z"/><rect class="cls-3" x="182.7" y="14.83" width="86.17" height="86.17" transform="translate(13.49 -38.33) rotate(10)"/><path class="cls-2" d="M241.61,58.13a1.78,1.78,0,0,0-1.4-1.28L232,55.4l10.64-22.88a1.78,1.78,0,0,0-2.77-2.1l-29.7,25.4a1.77,1.77,0,0,0,.85,3.09l8.21,1.45L208.59,83.24a1.78,1.78,0,0,0,.53,2.17,1.88,1.88,0,0,0,.77.33,1.75,1.75,0,0,0,1.46-.4L241.05,60A1.79,1.79,0,0,0,241.61,58.13Z"/></g></g></svg>