<svg width="514.7850341796875px" height="178.43997192382812px" xmlns="http://www.w3.org/2000/svg" viewBox="-7.39251708984375 -14.219985961914062 514.7850341796875 178.43997192382812" style="background: rgba(0, 0, 0, 0);" preserveAspectRatio="xMidYMid"><defs><filter id="editing-vr"><feFlood flood-color="#f00" flood-opacity="0.7" result="c1"></feFlood><feFlood flood-color="#00f" flood-opacity="0.7" result="c3"></feFlood><feComposite operator="in" in="c1" in2="SourceAlpha" result="text-c1"></feComposite><feComposite operator="in" in="c3" in2="SourceAlpha" result="text-c3"></feComposite><feOffset in="text-c1" dx="5" dy="-1" result="text1"></feOffset><feOffset in="text-c3" dx="-5" dy="1" result="text3"></feOffset><feBlend in="SourceGraphic" in2="text1" mode="multiply" result="text4"></feBlend><feBlend in="text4" in2="text3" mode="multiply"></feBlend></filter></defs><g filter="url(#editing-vr)"><g transform="translate(69.54999083280563, 121.5)"><path d="M44.40-15.40L44.40-15.40L44.40-15.40Q46.30-13 46.30-9.10L46.30-9.10L46.30-9.10Q46.30-3.70 42.30-0.85L42.30-0.85L42.30-0.85Q38.30 2 32 2L32 2L32 2Q28.40 2 22.90 1.20L22.90 1.20L22.90 1.20Q12.10-0.50 8.80-0.50L8.80-0.50L8.80-0.50Q5.50-0.50 4.20-0.35L4.20-0.35L4.20-0.35Q2.90-0.20 0.80 0L0.80 0L13.10-66L56.20-66L56.20-66Q56.20-59.90 53.25-56.70L53.25-56.70L53.25-56.70Q50.30-53.50 44.50-53.50L44.50-53.50L44.50-53.50Q38.70-53.50 32.80-56.20L32.80-56.20L29.70-38.70L47.50-38.70L47.50-38.70Q47.50-33.40 44.90-30.45L44.90-30.45L44.90-30.45Q42.30-27.50 37.95-27.50L37.95-27.50L37.95-27.50Q33.60-27.50 30.90-28.50L30.90-28.50L30.90-28.50Q28.20-29.50 27.90-29.80L27.90-29.80L24.30-10.90L24.30-10.90Q26.70-10.60 31.20-10.60L31.20-10.60L31.20-10.60Q38.90-10.60 44.40-15.40ZM97.80 2L97.80 2L97.80 2Q85.70 2 85.70-7.40L85.70-7.40L85.70-7.40Q85.80-10 86.60-14.40L86.60-14.40L88.40-23.60L88.40-23.60Q91.10-36.60 91.10-39.50L91.10-39.50L91.10-39.50Q91.10-45.30 87.70-45.30L87.70-45.30L87.70-45.30Q82-45.30 79-30.40L79-30.40L73.10 0L53.00 2L63.40-51.10L79.80-53L78.20-43.20L78.20-43.20Q82.90-53 97.30-53L97.30-53L97.30-53Q104.30-53 107.25-50.05L107.25-50.05L107.25-50.05Q110.20-47.10 110.20-40.50L110.20-40.50L110.20-40.50Q110.20-34.30 107-19.80L107-19.80L107-19.80Q105.50-13.30 105.50-10.85L105.50-10.85L105.50-10.85Q105.50-8.40 106.85-7L106.85-7L106.85-7Q108.20-5.60 110.20-5.40L110.20-5.40L110.20-5.40Q109.20-2 105.75 0L105.75 0L105.75 0Q102.30 2 97.80 2ZM142.20-5.50L142.20-5.50L142.20-5.50Q139.10 2 129.20 2L129.20 2L129.20 2Q124.10 2 120.90-1.50L120.90-1.50L120.90-1.50Q118.20-4.60 118.20-7.70L118.20-7.70L118.20-7.70Q118.20-15.80 121.90-31.60L121.90-31.60L125.60-51L145.90-53L139.80-21.40L139.80-21.40Q138.10-14 138.10-11.40L138.10-11.40L138.10-11.40Q138.10-5.70 142.20-5.50ZM127.40-64.90L127.40-64.90L127.40-64.90Q127.40-68.80 130.65-70.90L130.65-70.90L130.65-70.90Q133.90-73 138.60-73L138.60-73L138.60-73Q143.30-73 146.15-70.90L146.15-70.90L146.15-70.90Q149-68.80 149-64.90L149-64.90L149-64.90Q149-61 145.85-59L145.85-59L145.85-59Q142.70-57 138-57L138-57L138-57Q133.30-57 130.35-59L130.35-59L130.35-59Q127.40-61 127.40-64.90ZM157.80-41.80L157.80-41.80L157.80-41.80Q161.20-46.60 166.35-49.80L166.35-49.80L166.35-49.80Q171.50-53 177.80-53L177.80-53L177.80-53Q184.10-53 187.10-51L187.10-51L206.70-53L199.90-14.60L199.90-14.60Q196.40 5 189 12.70L189 12.70L189 12.70Q181.90 20 168.10 20L168.10 20L168.10 20Q157.60 20 151.60 16.70L151.60 16.70L151.60 16.70Q145.60 13.40 145.60 7.90L145.60 7.90L145.60 7.90Q145.60 3.80 148.70 1.45L148.70 1.45L148.70 1.45Q151.80-0.90 156.60-0.90L156.60-0.90L156.60-0.90Q160.80-0.90 164 1L164 1L164 1Q165.90 2 166.80 3.40L166.80 3.40L166.80 3.40Q164.50 5.40 164.50 8.70L164.50 8.70L164.50 8.70Q164.50 13 168.50 13L168.50 13L168.50 13Q175.20 13 179-2.80L179-2.80L179-2.80Q180.10-7.10 181-11.40L181-11.40L181-11.40Q176.50-5.90 166.30-5.90L166.30-5.90L166.30-5.90Q159.20-5.90 155.10-9.30L155.10-9.30L155.10-9.30Q151-12.70 151-20.70L151-20.70L151-20.70Q151-25.70 152.70-31.35L152.70-31.35L152.70-31.35Q154.40-37 157.80-41.80ZM170.80-20.40L170.80-20.40L170.80-20.40Q170.80-13.60 174.30-13.60L174.30-13.60L174.30-13.60Q176.70-13.60 179-16.20L179-16.20L179-16.20Q180.80-18.30 181.50-21.40L181.50-21.40L186.60-47.10L186.60-47.10Q186.10-47.20 185.60-47.40L185.60-47.40L185.60-47.40Q184.60-47.80 183.30-47.80L183.30-47.80L183.30-47.80Q177.20-47.80 173.60-37.80L173.60-37.80L173.60-37.80Q170.80-30 170.80-20.40ZM282.60 2L282.60 2L282.60 2Q270.50 2 270.50-7.40L270.50-7.40L270.50-7.40Q270.50-11.50 272.25-19.45L272.25-19.45L272.25-19.45Q274-27.40 274.60-30.60L274.60-30.60L274.60-30.60Q276-37.90 276-40.20L276-40.20L276-40.20Q276-45.30 272.20-45.30L272.20-45.30L272.20-45.30Q269.70-45.30 267.30-41.85L267.30-41.85L267.30-41.85Q264.90-38.40 263.80-31.50L263.80-31.50L257.60 0L238.10 2L243.50-25.20L243.50-25.20Q244.40-29.70 245.20-34.80L245.20-34.80L245.20-34.80Q246-39.90 246-40.70L246-40.70L246-40.70Q246-45.30 242.60-45.30L242.60-45.30L242.60-45.30Q240.30-45.30 237.80-41.90L237.80-41.90L237.80-41.90Q235.30-38.50 233.90-31.50L233.90-31.50L227.80 0L208.10 2L218.60-51L234.90-53L233.20-42.90L233.20-42.90Q235.80-48.30 240.60-50.65L240.60-50.65L240.60-50.65Q245.40-53 252.90-53L252.90-53L252.90-53Q257.20-53 260-50.90L260-50.90L260-50.90Q262.80-48.80 263.70-45.40L263.70-45.40L263.70-45.40Q265.40-48.90 269.75-50.95L269.75-50.95L269.75-50.95Q274.10-53 279.45-53L279.45-53L279.45-53Q284.80-53 287.45-51.85L287.45-51.85L287.45-51.85Q290.10-50.70 291.70-48.80L291.70-48.80L291.70-48.80Q294.40-45.30 294.40-38.90L294.40-38.90L294.40-38.90Q294.40-32.60 291.70-19.50L291.70-19.50L291.70-19.50Q290.30-13.10 290.30-10.75L290.30-10.75L290.30-10.75Q290.30-8.40 291.65-7L291.65-7L291.65-7Q293-5.60 295-5.40L295-5.40L295-5.40Q294-2 290.55 0L290.55 0L290.55 0Q287.10 2 282.60 2ZM307.05-3L307.05-3L307.05-3Q304.70-5.60 303.65-9.70L303.65-9.70L303.65-9.70Q302.60-13.80 302.60-20.50L302.60-20.50L302.60-20.50Q302.60-27.20 304.90-33.30L304.90-33.30L304.90-33.30Q307.20-39.40 311.40-43.80L311.40-43.80L311.40-43.80Q320-53 334.20-53L334.20-53L334.20-53Q339.30-53 343-51.30L343-51.30L360.10-53L352.70-14L352.70-14Q352.40-12.80 352.40-10.60L352.40-10.60L352.40-10.60Q352.40-8.40 353.75-7L353.75-7L353.75-7Q355.10-5.60 357.10-5.40L357.10-5.40L357.10-5.40Q356.10-2 352.45 0L352.45 0L352.45 0Q348.80 2 344.70 2L344.70 2L344.70 2Q340.60 2 337.85 0.45L337.85 0.45L337.85 0.45Q335.10-1.10 334.30-3.70L334.30-3.70L334.30-3.70Q332.70-1.20 329.30 0.40L329.30 0.40L329.30 0.40Q325.90 2 321.35 2L321.35 2L321.35 2Q316.80 2 313.10 0.80L313.10 0.80L313.10 0.80Q309.40-0.40 307.05-3ZM328.15-43.60L328.15-43.60L328.15-43.60Q327-41.80 326-38.75L326-38.75L326-38.75Q325-35.70 323.35-27.55L323.35-27.55L323.35-27.55Q321.70-19.40 321.70-13.60L321.70-13.60L321.70-13.60Q321.70-7.80 322.60-6.10L322.60-6.10L322.60-6.10Q323.50-4.40 325.10-4.40L325.10-4.40L325.10-4.40Q328.30-4.40 330.65-7.45L330.65-7.45L330.65-7.45Q333-10.50 333.90-15.90L333.90-15.90L339.20-45.20L339.20-45.20Q337.10-47 334.65-47L334.65-47L334.65-47Q332.20-47 330.75-46.20L330.75-46.20L330.75-46.20Q329.30-45.40 328.15-43.60Z" fill="#444"></path></g></g><style>text {
  font-size: 64px;
  font-family: Arial Black;
  dominant-baseline: central;
  text-anchor: middle;
}</style></svg>