<svg height="458pt" viewBox="0 -80 458.24957 458" width="458pt" xmlns="http://www.w3.org/2000/svg"><path d="m287.9375 262.726562-36.695312-15.914062 10.785156-65.078125 6.359375-14.679687 36.703125 15.910156-6.367188 14.679687zm0 0" fill="#a45e14"/><path d="m298.722656 197.644531 6.367188-14.679687-36.703125-15.910156-6.359375 14.679687 36.367187 17.878906zm0 0" fill="#985713"/><path d="m231.898438 194.109375c-4.417969.117187-8.097657-3.371094-8.210938-7.789063-.117188-4.417968 3.367188-8.09375 7.785156-8.210937 5.441406-.316406 9.605469-4.960937 9.328125-10.402344-.082031-1.585937.3125-3.164062 1.128907-4.527343l7.542968-12.640626c2.265625-3.792968 7.179688-5.027343 10.972656-2.761718 3.792969 2.265625 5.03125 7.179687 2.765626 10.972656l-6.402344 10.742188c-.65625 13.253906-11.210938 23.875-24.464844 24.617187zm0 0" fill="#787d82"/><path d="m194.992188 135.230469-3.03125 4.679687c-14.53125 22.460938-39.730469 35.703125-66.472657 34.933594l9.296875 38.914062 17.097656-3.121093c25.53125-4.621094 48.421876-18.597657 64.199219-39.199219l15.609375-20.359375zm0 0" fill="#6f7478"/><g fill="#787d82"><path d="m125.488281 174.84375 7.808594 32.679688 15.953125-3.261719c25.707031-5.417969 48.539062-20.070313 64.175781-41.183594l11.199219-14.984375-29.664062-12.863281-3.03125 4.679687c-14.523438 22.449219-39.710938 35.695313-66.441407 34.933594zm0 0"/><path d="m314.632812 160.949219 48.199219 29.617187 17.859375-.976562 77.558594 42.351562-28.648438 66.054688-127.695312-107.6875-9.144531-15.816406zm0 0"/><path d="m0 41.960938 9.546875-22.019532 124.773437 54.105469-9.546874 22.019531zm0 0"/></g><path d="m283.523438 180.597656-103.242188-51.738281-12.800781-6.222656 20.265625-40 11.664062 2.183593 107.136719 46.464844c6.625 2.867188 11.839844 8.253906 14.492187 14.96875 2.652344 6.714844 2.527344 14.207032-.347656 20.832032-2.972656 6.867187-8.640625 12.207031-15.675781 14.765624-7.03125 2.554688-14.804687 2.101563-21.492187-1.253906zm0 0" fill="#9c9c9c"/><path d="m58.976562 6.492188 1.953126 35.71875-9.550782 22.027343-29.351562-12.738281 9.542968-22.015625 12.726563-29.359375zm0 0" fill="#9c9c9c"/><path d="m306.546875 131.285156-106.441406-46.160156-10.222657 21.71875 131.789063 57.152344c3.984375-13.160156-2.515625-27.222656-15.125-32.710938zm0 0" fill="#a8a8a8"/><path d="m327.441406 211.84375 102.160156 86.152344 28.648438-66.054688-77.558594-42.351562-17.859375.976562-20.65625-12.699218zm0 0" fill="#a45e14"/><path d="m399.269531 267.410156 9.554688-22.015625 14.671875 6.367188-9.554688 22.015625zm0 0" fill="#834b10"/><path d="m437.089844 220.390625-14.097656-7.699219-7.804688 18.007813 14.671875 6.371093zm0 0" fill="#834b10"/><path d="m177.128906 136.203125-14.679687-6.367187-48.191407-29.613282 9.542969-22.027344 19.679688-11.558593 48 24-1.621094 16.207031zm0 0" fill="#a45e14"/><path d="m189.882812 106.84375-66.082031-28.648438 6.402344-14.679687c1.757813-4.050781 6.46875-5.90625 10.519531-4.152344l58.71875 25.457031zm0 0" fill="#b26616"/></svg>