<svg id="Capa_1" enable-background="new 0 0 511 511" height="512" viewBox="0 0 511 511" width="512" xmlns="http://www.w3.org/2000/svg"><path d="m119.5 191.5h256v216h-256z" fill="#ded7da"/><path d="m455.5 399.5c-36.222-36.222-112 0-136-40-11.642-19.403-8-72-8-72h-112s3.642 52.597-8 72c-24 40-99.778 3.778-136 40-24 24-24 104-24 104h448s0-80-24-104z" fill="#f6b171"/><path d="m111.5 431.5c36.222-36.222 112 0 136-40 11.642-19.403 8-72 8-72h55.771c-.811-16.961.229-32 .229-32h-112s3.642 52.597-8 72c-24 40-99.778 3.778-136 40-24 24-24 104-24 104h57.754c2.44-25.095 8.277-58.031 22.246-72z" fill="#f39842"/><path d="m255.5 23.5c-61.856 0-112 50.144-112 112v80c0 61.856 80 112 112 112s112-50.144 112-112v-80c0-61.856-50.144-112-112-112z" fill="#f6b171"/><path d="m175.5 207.5v-80c0-46.644 28.516-86.622 69.063-103.467-56.723 5.498-101.063 53.302-101.063 111.467v80c0 61.856 80 112 112 112 7.662 0 18.078-2.881 29.487-8.103-33.471-2.437-109.487-51.598-109.487-111.897z" fill="#f39842"/><path d="m255.5 247.5c-64-24-56 64-56 120s56 96 56 96 56-40 56-96 16-144-56-120z" fill="#efebed"/><path d="m229.985 355.556c0-37.096-3.503-88.222 12.73-111.544-50.088-7.923-43.215 71.541-43.215 123.488 0 56 56 96 56 96s9.888-7.064 21.353-19.409c-15.87-14.065-46.868-46.868-46.868-88.535z" fill="#cec4c8"/><path d="m255.5 87.5c48-40 96 8 96 128s-8 160 24 168 80 16 80 16-32-64-32-264c0-96-64-128-168-128z" fill="#efebed"/><path d="m255.5 87.5c-48-40-96 8-96 128s8 160-24 168-80 16-80 16 32-64 32-264c0-96 64-128 168-128z" fill="#efebed"/><path d="m127.5 135.5c0-82.994 47.841-118.149 128-126.153v-1.847c-104 0-168 32-168 128 0 200-32 264-32 264s20.249-3.375 43.21-7.932c8.108-22.395 28.79-95.269 28.79-256.068z" fill="#cec4c8"/><path d="m483.936 459.53c-4.075-31.24-11.522-52.86-22.144-64.304-2.444-5.598-14.859-36.724-23.108-107.999-.477-4.114-4.181-7.072-8.313-6.588-4.114.476-7.064 4.198-6.588 8.313 6.184 53.428 14.63 84.995 19.957 100.891-16.441-2.933-45.172-8.306-66.422-13.618-19.362-4.841-19.916-26.559-18.849-101.146.25-17.336.531-36.985.531-59.579 0-38.356-4.71-70.707-13.998-96.155-8.984-24.616-22.096-41.544-37.917-48.955-13.832-6.478-29.118-5.41-44.085 2.854v-58.186c105.728 1.663 153 39.008 153 120.442 0 43.557 1.529 84.138 4.546 120.618.342 4.128 3.966 7.194 8.093 6.856 4.128-.341 7.197-3.965 6.856-8.093-2.983-36.069-4.495-76.235-4.495-119.381 0-24.547-4.144-45.961-12.316-63.646-7.99-17.29-20.077-31.598-35.926-42.528-28.614-19.733-70.24-29.326-127.258-29.326s-98.645 9.593-127.258 29.326c-15.849 10.93-27.936 25.238-35.926 42.528-8.173 17.685-12.316 39.099-12.316 63.646 0 182.516-27.101 251.226-30.794 259.727-10.621 11.444-18.068 33.064-22.142 64.303-3.029 23.216-3.064 43.134-3.064 43.97 0 4.142 3.357 7.499 7.499 7.5h.001c4.141 0 7.498-3.357 7.5-7.498.008-20.775 3.716-77.413 20.285-97.036 10.393-1.779 50.333-8.764 78.035-15.689 3.252-.813 6.114-1.916 8.646-3.246.486.099.987.155 1.499.155.188 0 .377-.007.567-.021 14.599-1.092 32.082-4.086 44.044-16.611 2.195 57.268 56.698 96.861 59.064 98.551 1.304.931 2.832 1.397 4.359 1.397s3.056-.466 4.359-1.397c2.366-1.69 56.869-41.283 59.064-98.552 11.99 12.549 29.537 15.538 44.191 16.623.188.014.376.021.562.021.482 0 .955-.047 1.414-.135 2.518 1.317 5.364 2.409 8.591 3.216 27.702 6.925 67.642 13.91 78.035 15.689 16.569 19.624 20.277 76.262 20.285 97.036.002 4.142 3.359 7.499 7.501 7.498s7.499-3.358 7.499-7.5c0-.837-.035-20.755-3.064-43.971zm-183.214-375.555c20.922 9.799 43.278 49.497 43.278 131.525 0 17.399-.168 33.059-.359 47.264-.637.451-1.217 1.004-1.706 1.666-6.088 8.244-13.705 16.32-22.338 23.728-1.86-19.427-6.969-35.818-19.251-45.044-10.823-8.13-25.858-9.316-44.711-3.533-16.345-5.583-29.888-4.714-40.282 2.59-13.021 9.151-18.998 26.916-21.661 47.915-9.579-7.924-17.99-16.667-24.629-25.656-.489-.662-1.069-1.215-1.706-1.666-.189-14.205-.357-29.864-.357-47.264 0-82.028 22.355-121.726 43.277-131.525 15.492-7.256 30.531 1.046 40.421 9.287.107.089.225.159.336.241.146.109.289.22.444.319.16.102.327.187.494.276.117.063.226.137.348.194.032.015.067.023.099.038.173.078.35.138.527.202.159.058.317.122.479.168.167.048.337.079.506.115.176.038.351.081.528.106.164.023.33.028.495.041.184.013.367.032.551.032.166 0 .331-.018.496-.029.183-.012.367-.019.549-.045.163-.023.323-.064.485-.097.184-.038.367-.072.548-.124.153-.044.302-.105.454-.16.184-.066.369-.129.548-.21.032-.014.065-.022.097-.037.12-.056.227-.13.342-.191.169-.09.338-.176.5-.28.154-.098.296-.209.441-.317.111-.083.23-.153.337-.242 9.888-8.241 24.927-16.543 40.42-9.287zm-167.042 292.249c-21.237 5.309-49.946 10.679-66.393 13.613 9.234-27.433 27.713-101.442 27.713-254.337 0-81.434 47.271-118.779 153-120.442v58.186c-14.966-8.261-30.254-9.331-44.085-2.854-15.821 7.411-28.933 24.338-37.917 48.955-9.288 25.448-13.998 57.799-13.998 96.155 0 22.594.281 42.243.529 59.579 1.067 74.586.514 96.304-18.849 101.145zm51.388-20.583c-4.708 7.848-12.021 12.591-23.974 15.151 2.124-4.849 3.35-9.977 4.201-14.774 2.82-15.909 2.817-37.884 2.391-69.854 7.215 7.757 15.493 15.127 24.493 21.771-.347 6.902-.479 13.969-.498 21.05-.13.439-.227.893-.276 1.365-1.542 14.746-4.297 21.892-6.337 25.291zm118.932 11.859c0 42.521-35.84 75.972-48.5 86.459-12.665-10.492-48.5-43.941-48.5-86.459 0-5.483-.074-11.162-.153-17.174-.486-37.012-1.092-83.075 17.132-95.881 3.339-2.347 7.354-3.521 12.113-3.521 4.81 0 10.379 1.199 16.774 3.598 1.61.603 3.377.636 5.006.093 15.078-5.026 26.339-4.86 33.466.494 14.689 11.034 14.875 43.703 13.779 75.126-.298.96-.411 1.994-.291 3.057.044.389.092.764.138 1.147-.075 1.981-.152 3.954-.23 5.91-.378 9.57-.734 18.609-.734 27.151zm21.931-11.858c-1.855-3.093-4.341-9.372-5.933-21.831.342-9.157.607-18.301.507-27.13 8.337-6.299 16.043-13.242 22.808-20.514-.426 31.968-.428 53.943 2.391 69.852.851 4.796 2.076 9.924 4.2 14.772-11.952-2.561-19.267-7.307-23.973-15.149z"/><path d="m300.784 172.823c1.929-1.9 7.085-5.823 10.716-5.823s8.787 3.923 10.696 5.803c1.465 1.464 3.385 2.197 5.304 2.197s3.839-.732 5.304-2.197c2.929-2.929 2.929-7.678 0-10.606-1.044-1.044-10.509-10.197-21.304-10.197s-20.26 9.153-21.304 10.197c-2.921 2.921-2.919 7.644-.009 10.576 2.909 2.932 7.652 2.948 10.597.05z"/><circle cx="311.5" cy="175.5" r="7.5"/><path d="m199.5 152c-10.795 0-20.26 9.153-21.304 10.197-2.921 2.921-2.919 7.644-.009 10.576 2.909 2.932 7.652 2.948 10.597.05 1.929-1.9 7.085-5.823 10.716-5.823s8.787 3.923 10.716 5.823c1.462 1.452 3.373 2.177 5.284 2.177 1.919 0 3.839-.732 5.304-2.197 2.929-2.929 2.929-7.678 0-10.606-1.044-1.044-10.509-10.197-21.304-10.197z"/><circle cx="199.5" cy="175.5" r="7.5"/><path d="m257.872 216.385-15.797-5.265 20.133-40.266c1.853-3.705.351-8.21-3.354-10.062-3.707-1.853-8.211-.351-10.063 3.354l-24 48c-.973 1.944-1.053 4.215-.221 6.224s2.494 3.558 4.557 4.245l24 8c.787.262 1.587.387 2.373.387 3.14 0 6.066-1.988 7.114-5.13 1.311-3.93-.812-8.177-4.742-9.487z"/><path d="m282.854 272.792-16-8c-2.888-1.444-6.374-.878-8.658 1.405l-2.696 2.697-2.696-2.697c-2.283-2.284-5.77-2.849-8.658-1.405l-16 8c-3.704 1.852-5.206 6.357-3.354 10.062 1.852 3.706 6.356 5.208 10.063 3.354l11.165-5.583 4.177 4.178c2.93 2.929 7.678 2.929 10.607 0l4.177-4.178 11.165 5.583c1.077.539 2.222.793 3.349.793 2.751 0 5.4-1.52 6.714-4.147 1.851-3.705.349-8.21-3.355-10.062z"/><path d="m232 135.5c0 4.142 3.357 7.5 7.5 7.5h32c4.143 0 7.5-3.358 7.5-7.5s-3.357-7.5-7.5-7.5h-32c-4.143 0-7.5 3.358-7.5 7.5z"/><circle cx="255.5" cy="111.5" r="7.5"/></svg>