<svg height="512pt" viewBox="0 -144 512 512" width="512pt" xmlns="http://www.w3.org/2000/svg"><path d="m400 0c-57.007812 0-118.257812 59.519531-144 87.664062-25.742188-28.144531-86.992188-87.664062-144-87.664062-70.128906 0-112 41.871094-112 112s41.871094 112 112 112c57.007812 0 118.257812-59.519531 144-87.664062 25.742188 28.144531 86.992188 87.664062 144 87.664062 70.128906 0 112-41.871094 112-112s-41.871094-112-112-112zm-288 192c-53.070312 0-80-26.910156-80-80s26.929688-80 80-80c42.480469 0 96.910156 50.945312 122.960938 80-26.015626 29.089844-80.386719 80-122.960938 80zm288 0c-42.480469 0-96.910156-50.945312-122.960938-80 26.015626-29.089844 80.386719-80 122.960938-80 53.070312 0 80 26.910156 80 80s-26.929688 80-80 80zm0 0" fill="#ffcb5a"/></svg>