<svg height="367pt" viewBox="0 0 367 367.9822" width="367pt" xmlns="http://www.w3.org/2000/svg"><path d="m322.269531 305.8125c62.171875-70.421875 61.246094-176.394531-2.148437-245.71875-63.394532-69.324219-168.859375-79.699219-244.550782-24.058594-75.6875 55.644532-97.246093 159.402344-49.988281 240.59375 47.257813 81.1875 148.125 113.683594 233.890625 75.351563h108.964844zm0 0" fill="#ebebeb"/><path d="m352.4375 343.980469-46.167969-46.167969c36.847657-41.644531 52.871094-97.726562 43.59375-152.554688-9.277343-54.824218-42.863281-102.511718-91.359375-129.714843-89.835937-39.46875-194.835937-1.5-238.648437 86.292969-43.816407 87.796874-11.027344 194.527343 74.519531 242.585937 47.535156 20.898437 101.6875 20.738281 149.097656-.441406zm0 0" fill="#e4e4e2"/><g fill="#6cbae5"><path d="m232.4375 299.179688-34.992188 11.417968c-8.222656 2.679688-17.21875 1.488282-24.460937-3.238281-7.796875-5.03125-12.515625-13.660156-12.546875-22.9375v-87.039063c-.082031-14.921874-9.773438-28.089843-24-32.601562l34.992188-11.414062c8.226562-2.679688 17.222656-1.488282 24.464843 3.238281 7.796875 5.027343 12.515625 13.660156 12.542969 22.9375v87.039062c.082031 14.921875 9.777344 28.089844 24 32.597657zm0 0"/><path d="m216.4375 87.980469c0 17.675781-14.324219 32-32 32-17.671875 0-32-14.324219-32-32 0-17.671875 14.328125-32 32-32 17.675781 0 32 14.328125 32 32zm0 0"/></g></svg>