<svg id="Capa_1" enable-background="new 0 0 512.001 512.001" height="512" viewBox="0 0 512.001 512.001" width="512" xmlns="http://www.w3.org/2000/svg"><g clip-rule="evenodd" fill-rule="evenodd"><path d="m290.993 59.043-11.931 12.014c-4.03 4.058-4.03 10.698 0 14.756l11.93 12.013c4.03 4.058 10.625 4.058 14.655 0l11.931-12.013c4.03-4.058 4.03-10.698 0-14.757l-11.93-12.013c-4.03-4.058-10.625-4.058-14.655 0z" fill="#ff5a58"/><path d="m345.159 113.606c-36.638 30.974-65.019 23.14-81.652 12.219-8.602-5.648-14.401-2.138-10.93 7.028 23.325 61.6 93.329 27.597 120.141 11.713 6.758-4.004 7.022-11.275 3.227-16.078-3.896-4.929-7.793-9.859-11.689-14.788-4.324-5.469-10.955-6.976-19.097-.094z" fill="#ff5a58"/><path d="m372.718 144.567c-26.812 15.884-96.817 49.887-120.141-11.713-3.471-9.166 2.328-12.676 10.93-7.028 16.633 10.92 45.014 18.754 81.652-12.219 8.142-6.882 14.772-5.375 19.096.095 3.897 4.929 7.793 9.859 11.689 14.788 3.796 4.801 3.532 12.073-3.226 16.077zm-162.413 7.279c-28.782-13.728-64.668.627-88.693 16.605-5.171 3.439-7.421 11.06-3.745 16.368 4.637 6.695 8.443 12.191 13.08 18.886 3.89 5.617 9.982 6.879 16.127 1.143 58.33-54.459 86.993 19.67 38.18 35.569-12.201 3.974-12.974 18.261 1.306 23.655 46.443 17.543 60.917 88.055 2.466 91.169-42.524 2.265-67.49-29.952-79.859-53.116-5.822-10.903-13.177-7.395-14.205 1.958-18.607 169.145 240.281 131.847 155.813-13.831 61.75 10.89 49.837-62.616 93.793-61.914 17.444-.352 42.605 17.105 26.557 62.07-10.192 28.555-44.083 30.09-62.591 28.517-9.834-.836-13.177 10.077-8.686 16.706 24.543 36.219 75.663 26.197 100.25-2.246 42.563-49.237 2.779-136.436-51.904-139.387-55.548-2.996-59.625 61.259-100.594 62.673-11.547.399-18.984-12.094-9.793-23.471 25.284-31.293.536-67.981-27.502-81.354zm107.274-66.033-11.931 12.013c-4.03 4.058-10.625 4.058-14.655 0l-11.93-12.013c-4.03-4.058-4.03-10.698 0-14.756l11.931-12.014c4.03-4.058 10.625-4.058 14.655 0l11.93 12.013c4.03 4.059 4.03 10.699 0 14.757zm184.422 170.188c0-135.863-110.138-246.001-246.001-246.001s-246 110.138-246 246.001 110.138 246 246 246 246.001-110.138 246.001-246z" fill="#ffc144"/><path d="m400.099 333.386c42.563-49.237 2.779-136.436-51.904-139.387-55.548-2.996-59.625 61.259-100.594 62.673-11.547.399-18.984-12.094-9.793-23.471 25.282-31.294.534-67.982-27.504-81.356-28.782-13.728-64.668.627-88.693 16.605-5.171 3.439-7.421 11.06-3.745 16.368 4.637 6.695 8.443 12.191 13.08 18.886 3.89 5.617 9.982 6.879 16.127 1.143 58.33-54.459 86.993 19.67 38.18 35.569-12.201 3.974-12.974 18.261 1.306 23.655 46.443 17.543 60.917 88.055 2.466 91.169-42.524 2.265-67.49-29.952-79.859-53.116-5.822-10.903-13.177-7.395-14.205 1.958-18.607 169.145 240.281 131.847 155.813-13.831 61.75 10.89 49.837-62.616 93.793-61.914 17.444-.352 42.605 17.105 26.557 62.07-10.192 28.555-44.083 30.09-62.591 28.517-9.834-.836-13.177 10.077-8.686 16.706 24.546 36.221 75.665 26.2 100.252-2.244z" fill="#ff5a58"/></g><path d="m437.021 74.98c-48.353-48.351-112.64-74.98-181.021-74.98-52.028 0-102.12 15.532-144.861 44.919-4.551 3.129-5.704 9.354-2.575 13.905 3.129 4.552 9.355 5.705 13.906 2.575 39.392-27.084 85.566-41.399 133.53-41.399 130.131 0 236 105.87 236 236.001s-105.869 236-236 236-236-105.869-236-236c0-47.976 14.317-94.151 41.404-133.536 3.129-4.551 1.978-10.777-2.573-13.906-4.549-3.128-10.776-1.979-13.906 2.572-29.39 42.734-44.925 92.83-44.925 144.87 0 68.38 26.628 132.668 74.981 181.02 48.352 48.352 112.639 74.98 181.02 74.98s132.667-26.629 181.02-74.98c48.352-48.352 74.98-112.64 74.98-181.02 0-68.381-26.629-132.668-74.98-181.021z"/><path d="m85.021 302.99c-5.913 53.747 14.445 95.222 55.853 113.787 13.903 6.233 29.063 9.224 44.067 9.224 28.297-.001 56.029-10.639 73.671-30.218 11.822-13.12 18.426-29.555 19.097-47.529.555-14.884-2.848-30.674-10.134-47.108 27.426-2.256 39.438-22.747 48.62-38.417 9.208-15.717 15.085-24.606 28.213-24.39.123.002.242.001.361-.001 4.791-.112 11.967 2.111 16.671 8.644 6.371 8.849 6.463 22.703.267 40.066-7.944 22.261-36.197 23.283-52.325 21.915-7.844-.664-14.808 2.838-18.638 9.374-4.075 6.956-3.743 16.161.827 22.905 11.258 16.614 28.617 26.418 48.881 27.607 24.396 1.426 50.786-9.922 67.213-28.924 22.173-25.65 26.561-63.658 11.452-99.191-6.555-15.415-16.209-28.833-27.92-38.805-12.816-10.913-27.5-17.108-42.463-17.915-35.469-1.9-53.342 20.121-67.705 37.825-12.25 15.101-20.435 24.378-33.773 24.839-1.548.052-2.762-.549-3.292-1.609-.691-1.384-.084-3.472 1.623-5.584 11.19-13.851 15.12-29.923 11.363-46.479-4.635-20.429-21.255-40.128-42.341-50.186-38.115-18.181-81.606 6.045-98.536 17.305-4.972 3.307-8.48 8.633-9.625 14.614-1.079 5.637.056 11.238 3.196 15.773l13.08 18.886c3.636 5.249 8.741 8.474 14.377 9.079 4.097.439 10.343-.298 16.795-6.319 15.064-14.064 29.449-19.915 38.482-15.645 5.07 2.396 8.081 8.133 7.669 14.614-.565 8.921-7.255 16.316-17.893 19.781-9.615 3.132-15.965 11.058-16.176 20.192-.225 9.715 6.307 18.27 17.046 22.326 23.697 8.951 36.714 33.663 34.003 51.128-2.48 15.984-16.887 20.08-28.536 20.7-36.139 1.957-58.285-24.954-70.506-47.84-6.779-12.695-15.799-12.468-19.364-11.782-7.366 1.423-12.579 8.073-13.6 17.358zm19.176 10.658c20.087 33.548 48.395 51.706 80.705 51.704 1.542 0 3.097-.041 4.656-.124 26.139-1.394 43.797-15.452 47.235-37.606 4.467-28.785-16.482-61.489-46.7-72.903-3.17-1.198-4.128-2.73-4.119-3.153.005-.224.6-1.061 2.375-1.639 18.441-6.007 30.572-20.389 31.659-37.534.933-14.711-6.558-28.041-19.083-33.961-9.97-4.714-31.112-8.495-60.676 19.106-.359.336-.659.57-.893.732-.059-.075-.122-.161-.189-.259l-13.081-18.888c-.17-.346.187-1.764 1.063-2.347 10.992-7.311 49.165-30.068 78.85-15.905 15.529 7.406 28.167 22.099 31.447 36.56 2.387 10.52-.108 20.439-7.417 29.485-6.765 8.373-8.245 18.498-3.96 27.083 4.063 8.14 12.439 12.998 21.878 12.667 23.118-.799 36.663-17.495 48.613-32.227 13.851-17.073 25.823-31.818 51.096-30.455 21.202 1.144 42.027 18.641 53.056 44.575 9.482 22.302 12.314 54.579-8.178 78.285-12.507 14.468-32.491 23.108-50.91 22.038-9.842-.577-23.642-4.318-33.496-18.861-.21-.309-.265-.761-.237-1.114 37.103 3.094 63.575-9.705 72.652-35.138 10.746-30.109 4.369-48.419-2.873-58.476-7.678-10.664-20.349-17.155-33.116-16.956-.206-.003-.414-.004-.618-.004-24.91 0-36.037 18.991-44.997 34.283-10.673 18.216-19.103 32.6-46.427 27.787-3.83-.677-7.706.931-9.934 4.119s-2.405 7.38-.454 10.744c20.233 34.896 20.813 65.839 1.63 87.127-21.086 23.4-62.682 30.489-94.698 16.132-18.446-8.268-47.889-30.134-44.859-84.877z"/><path d="m246.907 116.232c-2.037 1.633-8.32 7.913-3.683 20.162 7.404 19.555 19.71 32.467 36.576 38.376 7.109 2.49 14.594 3.551 22.196 3.551 28.386-.003 58.339-14.796 75.817-25.151 5.519-3.269 9.158-8.303 10.249-14.174 1.08-5.815-.478-11.905-4.272-16.708l-11.69-14.788c-3.894-4.927-8.939-7.831-14.59-8.398-6.334-.633-12.663 1.674-18.808 6.868-25.296 21.386-48.749 25.256-69.707 11.496-8.133-5.341-16.391-5.802-22.088-1.234zm104.708 5.011c2.211-1.869 3.594-2.254 3.826-2.258.003.002.374.164.97.918l11.688 14.786c.266.337.304.608.311.619-.033.068-.248.334-.789.654-15.431 9.142-54.232 29.38-81.207 19.933-8.339-2.922-14.912-8.497-19.908-16.931 18.302 8.714 48.426 13.292 85.109-17.721z"/><path d="m283.897 104.872c3.841 3.868 8.963 5.998 14.424 5.998 5.46 0 10.582-2.13 14.422-5.996l11.933-12.015c7.896-7.954 7.896-20.896-.002-28.85l-11.931-12.013c-3.84-3.866-8.961-5.996-14.421-5.996-.001 0-.001 0-.002 0-5.459 0-10.582 2.129-14.423 5.996l-11.93 12.014v.001c-7.898 7.953-7.898 20.896 0 28.85zm2.261-26.769 11.93-12.013c.029-.029.09-.09.232-.09s.202.061.231.09l11.931 12.013c.157.159.157.507.001.664l-11.932 12.015c-.029.028-.089.089-.23.089-.143 0-.203-.061-.232-.091l-11.931-12.012c-.157-.16-.157-.506 0-.665z"/><path d="m82.057 92.048c2.401 0 4.811-.859 6.727-2.602 4.086-3.715 4.388-10.039.673-14.126-3.716-4.087-10.04-4.387-14.126-.673l-.005.005c-4.086 3.715-4.385 10.037-.67 14.124 1.972 2.17 4.681 3.272 7.401 3.272z"/></svg>