<?xml version="1.0" encoding="iso-8859-1"?>
<!-- Generator: Adobe Illustrator 19.0.0, SVG Export Plug-In . SVG Version: 6.00 Build 0)  -->
<svg version="1.1" id="Capa_1" xmlns="http://www.w3.org/2000/svg" xmlns:xlink="http://www.w3.org/1999/xlink" x="0px" y="0px"
	 viewBox="0 0 471.998 471.998" style="enable-background:new 0 0 471.998 471.998;" xml:space="preserve">
<path style="fill:#D9D9D9;" d="M115.999,24h240l0,0v224c0,44.183-35.817,80-80,80h-80c-44.183,0-80-35.817-80-80V24L115.999,24z"/>
<path style="fill:#F0F0F0;" d="M187.999,56h96c8.837,0,16,7.163,16,16v8c0,8.837-7.163,16-16,16h-96c-8.837,0-16-7.163-16-16v-8
	C171.999,63.163,179.162,56,187.999,56z"/>
<path style="fill:#8ACED8;" d="M115.999,128h240l0,0v120c0,44.183-35.817,80-80,80h-80c-44.183,0-80-35.817-80-80V128L115.999,128z"
	/>
<path style="fill:#32B39B;" d="M219.999,360h32v32h-32V360z"/>
<path style="fill:#208673;" d="M219.999,360h32v16h-32V360z"/>
<path style="fill:#32B39B;" d="M203.999,328h64c8.837,0,16,7.163,16,16l0,0c0,8.837-7.163,16-16,16h-64c-8.837,0-16-7.163-16-16l0,0
	C187.999,335.163,195.162,328,203.999,328z"/>
<g>
	<path style="fill:#6FBBC6;" d="M115.999,184h40v16h-40V184z"/>
	<path style="fill:#6FBBC6;" d="M115.999,152h40v16h-40V152z"/>
	<path style="fill:#6FBBC6;" d="M115.999,216h40v16h-40V216z"/>
	<path style="fill:#6FBBC6;" d="M155.999,264v-16h-40c-0.002,5.373,0.534,10.733,1.6,16H155.999z"/>
</g>
<path style="fill:#B9B9B9;" d="M227.999,0h16v56h-16V0z"/>
<path style="fill:#6FBBC6;" d="M235.999,432l-11.768,22.12c-2.528,4.748-1.517,10.606,2.456,14.232v0.04
	c5.253,4.808,13.307,4.808,18.56,0v-0.04c3.973-3.626,4.984-9.484,2.456-14.232L235.999,432z"/>
<path style="fill:#8ACED8;" d="M235.999,432l-11.768,22.12c-0.21,0.495-0.381,1.006-0.512,1.528c0.605,1.78,1.622,3.392,2.968,4.704
	v0.04c5.253,4.808,13.307,4.808,18.56,0v-0.04c1.346-1.312,2.363-2.924,2.968-4.704c-0.131-0.522-0.302-1.033-0.512-1.528
	L235.999,432z"/>
<path style="fill:#32B39B;" d="M283.999,200h-24v-24h-48v24h-24v48h24v24h48v-24h24V200z"/>
<path style="fill:#B3E4E8;" d="M115.999,128h240v16h-240V128z"/>
<g>
</g>
<g>
</g>
<g>
</g>
<g>
</g>
<g>
</g>
<g>
</g>
<g>
</g>
<g>
</g>
<g>
</g>
<g>
</g>
<g>
</g>
<g>
</g>
<g>
</g>
<g>
</g>
<g>
</g>
</svg>
