<?xml version="1.0" encoding="iso-8859-1"?>
<!-- Generator: Adobe Illustrator 19.0.0, SVG Export Plug-In . SVG Version: 6.00 Build 0)  -->
<svg version="1.1" id="Layer_1" xmlns="http://www.w3.org/2000/svg" xmlns:xlink="http://www.w3.org/1999/xlink" x="0px" y="0px"
	 viewBox="0 0 512 512" style="enable-background:new 0 0 512 512;" xml:space="preserve">
<path style="fill:#7DD2F0;" d="M256.001,512c-68.38,0-132.667-26.629-181.02-74.981C26.629,388.668,0,324.38,0,256.001
	c0-68.38,26.629-132.667,74.98-181.02C123.334,26.629,187.619,0,256.001,0c68.379,0,132.667,26.629,181.018,74.981
	C485.371,123.334,512,187.62,512,256.001s-26.63,132.667-74.981,181.02S324.38,512,256.001,512z M256.001,69.8
	C153.329,69.8,69.8,153.329,69.8,256.001s83.529,186.2,186.201,186.2s186.201-83.529,186.201-186.2S358.671,69.8,256.001,69.8z"/>
<g style="opacity:0.1;">
	<path d="M121.513,437.019c-48.351-48.351-74.98-112.639-74.98-181.019s26.629-132.667,74.98-181.018
		c42.826-42.826,98.155-68.592,157.753-73.927C271.575,0.365,263.816,0,256.001,0c-68.38,0-132.667,26.629-181.02,74.981
		C26.629,123.332,0,187.62,0,255.999s26.629,132.668,74.98,181.019C123.332,485.37,187.619,512,255.999,512
		c7.816,0,15.575-0.365,23.267-1.054C219.668,505.611,164.34,479.844,121.513,437.019z"/>
</g>
<g>
</g>
<g>
</g>
<g>
</g>
<g>
</g>
<g>
</g>
<g>
</g>
<g>
</g>
<g>
</g>
<g>
</g>
<g>
</g>
<g>
</g>
<g>
</g>
<g>
</g>
<g>
</g>
<g>
</g>
</svg>
